<svg xmlns="http://www.w3.org/2000/svg" x="0px" y="0px" width="100" height="100" viewBox="0 0 48 48">
<path fill="#00acc1" d="M44,24c0,11-9,20-20,20S4,35,4,24S13,4,24,4S44,13,44,24z"></path><path fill="#eee" d="M40,24c0,8.8-7.2,16-16,16S8,32.8,8,24S15.2,8,24,8S40,15.2,40,24z"></path><line x1="24" x2="30.5" y1="24" y2="30.5" fill="none" stroke="#263238" stroke-miterlimit="10" stroke-width="2"></line><line x1="24" x2="24" y1="11" y2="24" fill="none" stroke="#263238" stroke-miterlimit="10" stroke-width="2"></line><g><path fill="#263238" d="M27,24c0,1.7-1.3,3-3,3c-1.7,0-3-1.3-3-3s1.3-3,3-3C25.7,21,27,22.3,27,24"></path><path fill="#00acc1" d="M25,24c0,0.6-0.4,1-1,1s-1-0.4-1-1c0-0.6,0.4-1,1-1S25,23.4,25,24"></path></g>
</svg>